<?xml version="1.0" encoding="utf-8"?>
<!-- Generator: Adobe Illustrator 21.1.0, SVG Export Plug-In . SVG Version: 6.00 Build 0)  -->
<svg version="1.0" xmlns="http://www.w3.org/2000/svg" xmlns:xlink="http://www.w3.org/1999/xlink" x="0px" y="0px"
	 viewBox="0 0 444.3 109.2" enable-background="new 0 0 444.3 109.2" xml:space="preserve">
<g id="Capa_2">
</g>
<g id="Capa_1">
	<circle fill="#FFFFFF" cx="210.6" cy="74.3" r="25.5"/>
	<circle fill="none" stroke="#000000" stroke-width="4" stroke-miterlimit="10" cx="210.6" cy="74.3" r="22.7"/>
	<polygon fill="#FFFFFF" points="227,68.8 212.8,68.8 219.9,46.4 195,79 208.3,79 192.4,109.2 	"/>
	<polygon fill="#1A171B" points="218.1,49.8 196.3,78.3 209.4,78.3 195.8,104.2 225.5,69.4 211.9,69.4 	"/>
	<g>
		<path fill="#1A171B" stroke="#FFFFFF" stroke-width="4" stroke-miterlimit="10" d="M14.1,9.3h5v0.1l-3.6,13.9v2.3l-0.2,0.2h-3
			c-0.2,0.3-0.8,2.4-1.7,6.2h20.4l0.2,0.2v4.8l-0.2,0.2H4.2L4,36.9l3-11.2l-0.2-0.2v-4.8L7,20.6h4C12.9,13.1,13.9,9.3,14.1,9.3z"/>
		<path fill="#1A171B" stroke="#FFFFFF" stroke-width="4" stroke-miterlimit="10" d="M46.7,9.3c0.2,0,0.7,2,1.7,5.9L54.3,37
			l-0.1,0.1h-4.9c-0.2,0-0.5-1.1-1-3.2l-1-3.6h-5c-0.3-0.4-0.9-2.5-1.8-6.5h-0.1c-2.2,8.4-3.4,12.8-3.6,13.3h-4.9l-0.2-0.2l3.7-13.8
			H38c2.4-9.2,3.6-13.8,3.7-13.8H46.7z M44.3,19l-1.1,4.1h2.2L44.3,19L44.3,19z"/>
		<path fill="#1A171B" stroke="#FFFFFF" stroke-width="4" stroke-miterlimit="10" d="M69.8,9.4L69.8,9.4l21.6-0.1l0.2,0.2
			c-0.7,3.2-1.2,4.9-1.3,5h-8.4l-2.3,9.1v2.1l-0.2,0.2h-3c-0.1,0-0.6,1.9-1.6,5.6l-1.6,5.7h-5l-0.2-0.2l3-11.2l-0.2-0.2v-4.8
			l0.2-0.2h4l1.7-6.2h-5.5c-0.2,0-0.6-1.5-1.2-4.6C69.9,9.9,69.8,9.7,69.8,9.4z"/>
		<path fill="#1A171B" stroke="#FFFFFF" stroke-width="4" stroke-miterlimit="10" d="M101.7,9.3h0.5c4.5,0,8.3,2.1,11.3,6.2
			c1.5,2.4,2.3,4.9,2.3,7.5v0.5c0,4.5-2.1,8.3-6.2,11.3c-2.4,1.5-4.9,2.3-7.5,2.3h-0.5c-4.5,0-8.3-2.1-11.3-6.2
			c-1.5-2.4-2.3-4.9-2.3-7.5v-0.5c0-4.5,2.1-8.3,6.2-11.3C96.7,10.1,99.1,9.3,101.7,9.3z M93.2,23.2c0,3.3,1.6,5.9,4.7,7.8
			c1.4,0.7,2.8,1,4.1,1c3.3,0,5.9-1.6,7.8-4.7c0.7-1.4,1-2.8,1-4.1c0-3.3-1.6-5.9-4.7-7.8c-1.4-0.7-2.8-1-4.1-1
			c-3.3,0-5.9,1.6-7.8,4.7C93.5,20.6,93.2,21.9,93.2,23.2z"/>
		<path fill="#1A171B" stroke="#FFFFFF" stroke-width="4" stroke-miterlimit="10" d="M117,9.4L117,9.4l14.2-0.1
			c3.2,0,5.7,1.7,7.5,5.2c0.3,1,0.5,1.9,0.5,2.7v0.7c0,2.3-1.1,4.5-3.4,6.4l3.4,12.7l-0.1,0.1h-4.9c-0.2,0-0.7-1.6-1.4-4.7l-1.8-6.6
			h-7.5c-0.1,0-0.6,1.9-1.6,5.6l-1.6,5.6l-0.1,0.1h-4.9l-0.2-0.2l3-11.2h-1l-0.2-0.2v-4.8l0.2-0.2h5l1.7-6.2h-5.4
			C118.3,14.4,117.8,12.7,117,9.4z M128.9,14.4l-1.7,6.2h3.1c1.7,0,2.9-0.6,3.4-1.7c0.2-0.6,0.3-1,0.3-1.5c-0.3-2-1.4-3-3.3-3H128.9
			z"/>
		<path fill="#1A171B" stroke="#FFFFFF" stroke-width="4" stroke-miterlimit="10" d="M152.1,9.3c0.2,0,0.7,1.6,1.4,4.8l1.8,6.5h3.1
			l0.2,0.2v2.3l1.1,4.3h0.1l1.1-4.3v-2.3l0.2-0.2h3c0.2-0.3,0.9-2.7,2-7.2l1.2-4.1l0.1-0.1h5c0.2,0.2,0.8,2.2,1.7,5.9l5.9,21.9
			l-0.1,0.1h-4.9c-0.2,0-0.7-1.6-1.4-4.8c-0.1-0.1-1.3-4.6-3.6-13.2h-0.1l-0.4,1.6l0.2,0.2v4.8l-0.2,0.2h-4
			c-1.9,7.3-2.9,11.1-3.1,11.3h-5c-0.2,0-0.7-1.7-1.5-5.1l-1.7-6.2h-4l-0.2-0.2v-4.8l0.2-0.2l-0.4-1.6h-0.1l-4.8,18l-0.1,0.1h-4.9
			l-0.2-0.2l7.5-27.7H152.1z"/>
		<path fill="#1A171B" stroke="#FFFFFF" stroke-width="4" stroke-miterlimit="10" d="M182.5,9.3H208l0.2,0.2c-0.7,3.2-1.2,4.9-1.3,5
			h-12.6l-1.7,6.2h2.6c-0.7,3.4-1.1,5.1-1.3,5.1h-5.1c-0.1,0-0.7,2.1-1.7,6.2h19.7c0.2,0,0.6,1.7,1.3,5.1h-27.4l-0.2-0.2l3-11.2
			l-0.2-0.2v-4.8l0.2-0.2h4l1.7-6.2h-6.6l-0.2-0.2V9.5L182.5,9.3z"/>
		<path fill="#1A171B" stroke="#FFFFFF" stroke-width="4" stroke-miterlimit="10" d="M223.9,9.3c0.2,0,1,2.8,2.3,8.3
			c0.1,0.1,1,3.4,2.7,9.9h0.1l0.4-1.7l-0.2-0.2v-4.8l0.2-0.2h3.8c0.1,0,0.6-1.8,1.6-5.5c0.9-3.6,1.5-5.6,1.7-5.9h4.9l0.2,0.2
			l-3.6,13.7v2.4l-0.2,0.2h-3.1c-1.7,6.4-2.7,10.2-3.1,11.3h-5c-0.2,0-0.9-2.5-2.1-7.4c-0.3-0.7-1.2-4.3-2.9-10.8h-0.1l-1.1,4.3v2.3
			l-0.2,0.2h-3c-0.1,0-0.6,1.8-1.6,5.5c-0.9,3.6-1.5,5.6-1.7,5.9H209l-0.2-0.2l3-11.2l-0.2-0.2v-4.8l0.2-0.2h4
			c1.9-7.3,2.9-11.1,3.1-11.3H223.9z"/>
		<path fill="#1A171B" stroke="#FFFFFF" stroke-width="4" stroke-miterlimit="10" d="M242.2,9.4L242.2,9.4l21.6-0.1l0.2,0.2
			c-0.7,3.2-1.2,4.9-1.3,5h-8.4l-2.3,9.1v2.1l-0.2,0.2h-3c-0.1,0-0.6,1.9-1.6,5.6l-1.6,5.7h-5l-0.2-0.2l3-11.2l-0.2-0.2v-4.8
			l0.2-0.2h4l1.7-6.2h-5.5c-0.2,0-0.6-1.5-1.2-4.6C242.3,9.9,242.2,9.7,242.2,9.4z"/>
		<path fill="#1A171B" stroke="#FFFFFF" stroke-width="4" stroke-miterlimit="10" d="M270.9,9.3c0.2,0,0.7,2,1.7,5.9l5.9,21.9
			l-0.1,0.1h-4.9c-0.2,0-0.5-1.1-1-3.2l-1-3.6h-5c-0.3-0.4-0.9-2.5-1.8-6.5h-0.1c-2.2,8.4-3.4,12.8-3.6,13.3h-4.9l-0.2-0.2l3.7-13.8
			h2.6c2.4-9.2,3.6-13.8,3.7-13.8H270.9z M268.4,19l-1.1,4.1h2.2L268.4,19L268.4,19z"/>
		<path fill="#1A171B" stroke="#FFFFFF" stroke-width="4" stroke-miterlimit="10" d="M294.3,9.3h12.4c3.7,0,7.1,1.7,10.3,5.2
			c2,2.8,3,5.4,3,8v1.3c0,3.7-1.8,7.2-5.3,10.3c-2.2,1.6-4.4,2.5-6.6,2.8l-0.1,0.1h-15.5l-0.2-0.2l3.7-13.7h2.4c0.2,0,0.7-2,1.7-6
			l0.8-2.8h-6.6l-0.2-0.2V9.5L294.3,9.3z M306,14.5c-1.5,5.9-2.3,8.8-2.5,8.8h-2.3c-0.1,0-0.9,2.9-2.4,8.7h6.9
			c3.9,0,6.7-1.8,8.4-5.3c0.5-1.1,0.7-2.3,0.7-3.6c0-3.4-1.7-6.1-5.2-7.9C308.6,14.7,307.4,14.5,306,14.5z"/>
		<path fill="#1A171B" stroke="#FFFFFF" stroke-width="4" stroke-miterlimit="10" d="M333,9.3l0.2,0.2c-2.3,8.3-3.5,13-3.6,14v2.2
			l-0.2,0.2h-3.1l-3,11.3l-0.1,0.1h-4.9l-0.2-0.2l3-11.2l-0.2-0.2v-4.8l0.2-0.2h4l3-11.3l0.1-0.1H333z"/>
		<path fill="#1A171B" stroke="#FFFFFF" stroke-width="4" stroke-miterlimit="10" d="M344.8,9.3h12.4l0.1,0.1h0.1l-1.3,5h-10.3
			c-3.9,0-6.7,1.8-8.4,5.3c-0.5,1.1-0.7,2.3-0.7,3.6c0,3.4,1.7,6.1,5.2,7.9c1.2,0.5,2.5,0.7,3.9,0.7h6.9c-1-4.1-1.6-6.2-1.7-6.2
			h-3.8c-0.2-0.3-0.8-2-1.7-5.1l0.1-0.1h11.8v0.1l-1.2,4.4l3.1,11.9l-0.1,0.1h-15.6c-0.1-0.1-0.7-0.2-1.7-0.4
			c-3.4-1.2-5.5-2.5-6.4-3.9c-1.5-1.6-2.5-3.2-3-4.6c-0.6-1.5-0.9-3-0.9-4.3v-1.3c0-3.7,1.7-7.1,5.2-10.3
			C339.5,10.3,342.2,9.3,344.8,9.3z"/>
		<path fill="#1A171B" stroke="#FFFFFF" stroke-width="4" stroke-miterlimit="10" d="M374.8,9.3l0.2,0.2c-2.3,8.3-3.5,13-3.6,14v2.2
			l-0.2,0.2H368l-3,11.3l-0.1,0.1h-4.9l-0.2-0.2l3-11.2l-0.2-0.2v-4.8l0.2-0.2h4l3-11.3l0.1-0.1H374.8z"/>
		<path fill="#1A171B" stroke="#FFFFFF" stroke-width="4" stroke-miterlimit="10" d="M376.3,9.4L376.3,9.4l21.6-0.1l0.2,0.2
			c-0.7,3.2-1.2,4.9-1.3,5h-8.4l-2.3,9.1v2.1l-0.2,0.2h-3c-0.1,0-0.6,1.9-1.6,5.6l-1.6,5.7h-5l-0.2-0.2l3-11.2l-0.2-0.2v-4.8
			l0.2-0.2h4l1.7-6.2h-5.5c-0.2,0-0.6-1.5-1.2-4.6C376.4,9.9,376.3,9.7,376.3,9.4z"/>
		<path fill="#1A171B" stroke="#FFFFFF" stroke-width="4" stroke-miterlimit="10" d="M405,9.3c0.2,0,0.7,2,1.7,5.9l5.9,21.9
			l-0.1,0.1h-4.9c-0.2,0-0.5-1.1-1-3.2l-1-3.6h-5c-0.3-0.4-0.9-2.5-1.8-6.5h-0.1c-2.2,8.4-3.4,12.8-3.6,13.3h-4.9l-0.2-0.2l3.7-13.8
			h2.6c2.4-9.2,3.6-13.8,3.7-13.8H405z M402.5,19l-1.1,4.1h2.2L402.5,19L402.5,19z"/>
		<path fill="#1A171B" stroke="#FFFFFF" stroke-width="4" stroke-miterlimit="10" d="M423.3,9.3h5v0.1l-3.6,13.9v2.3l-0.2,0.2h-3
			c-0.2,0.3-0.8,2.4-1.7,6.2h20.4l0.2,0.2v4.8l-0.2,0.2h-26.7l-0.2-0.2l3-11.2l-0.2-0.2v-4.8l0.2-0.2h4
			C422.1,13.1,423.2,9.3,423.3,9.3z"/>
	</g>
	<g>
		<path d="M14.1,9.3h5v0.1l-3.6,13.9v2.3l-0.2,0.2h-3c-0.2,0.3-0.8,2.4-1.7,6.2h20.4l0.2,0.2v4.8l-0.2,0.2H4.2L4,36.9l3-11.2
			l-0.2-0.2v-4.8L7,20.6h4C12.9,13.1,13.9,9.3,14.1,9.3z"/>
		<path d="M46.7,9.3c0.2,0,0.7,2,1.7,5.9L54.3,37l-0.1,0.1h-4.9c-0.2,0-0.5-1.1-1-3.2l-1-3.6h-5c-0.3-0.4-0.9-2.5-1.8-6.5h-0.1
			c-2.2,8.4-3.4,12.8-3.6,13.3h-4.9l-0.2-0.2l3.7-13.8H38c2.4-9.2,3.6-13.8,3.7-13.8H46.7z M44.3,19l-1.1,4.1h2.2L44.3,19L44.3,19z"
			/>
		<path d="M69.8,9.4L69.8,9.4l21.6-0.1l0.2,0.2c-0.7,3.2-1.2,4.9-1.3,5h-8.4l-2.3,9.1v2.1l-0.2,0.2h-3c-0.1,0-0.6,1.9-1.6,5.6
			l-1.6,5.7h-5l-0.2-0.2l3-11.2l-0.2-0.2v-4.8l0.2-0.2h4l1.7-6.2h-5.5c-0.2,0-0.6-1.5-1.2-4.6C69.9,9.9,69.8,9.7,69.8,9.4z"/>
		<path d="M101.7,9.3h0.5c4.5,0,8.3,2.1,11.3,6.2c1.5,2.4,2.3,4.9,2.3,7.5v0.5c0,4.5-2.1,8.3-6.2,11.3c-2.4,1.5-4.9,2.3-7.5,2.3
			h-0.5c-4.5,0-8.3-2.1-11.3-6.2c-1.5-2.4-2.3-4.9-2.3-7.5v-0.5c0-4.5,2.1-8.3,6.2-11.3C96.7,10.1,99.1,9.3,101.7,9.3z M93.2,23.2
			c0,3.3,1.6,5.9,4.7,7.8c1.4,0.7,2.8,1,4.1,1c3.3,0,5.9-1.6,7.8-4.7c0.7-1.4,1-2.8,1-4.1c0-3.3-1.6-5.9-4.7-7.8
			c-1.4-0.7-2.8-1-4.1-1c-3.3,0-5.9,1.6-7.8,4.7C93.5,20.6,93.2,21.9,93.2,23.2z"/>
		<path d="M117,9.4L117,9.4l14.2-0.1c3.2,0,5.7,1.7,7.5,5.2c0.3,1,0.5,1.9,0.5,2.7v0.7c0,2.3-1.1,4.5-3.4,6.4l3.4,12.7l-0.1,0.1
			h-4.9c-0.2,0-0.7-1.6-1.4-4.7l-1.8-6.6h-7.5c-0.1,0-0.6,1.9-1.6,5.6l-1.6,5.6l-0.1,0.1h-4.9l-0.2-0.2l3-11.2h-1l-0.2-0.2v-4.8
			l0.2-0.2h5l1.7-6.2h-5.4C118.3,14.4,117.8,12.7,117,9.4z M128.9,14.4l-1.7,6.2h3.1c1.7,0,2.9-0.6,3.4-1.7c0.2-0.6,0.3-1,0.3-1.5
			c-0.3-2-1.4-3-3.3-3H128.9z"/>
		<path d="M152.1,9.3c0.2,0,0.7,1.6,1.4,4.8l1.8,6.5h3.1l0.2,0.2v2.3l1.1,4.3h0.1l1.1-4.3v-2.3l0.2-0.2h3c0.2-0.3,0.9-2.7,2-7.2
			l1.2-4.1l0.1-0.1h5c0.2,0.2,0.8,2.2,1.7,5.9l5.9,21.9l-0.1,0.1h-4.9c-0.2,0-0.7-1.6-1.4-4.8c-0.1-0.1-1.3-4.6-3.6-13.2h-0.1
			l-0.4,1.6l0.2,0.2v4.8l-0.2,0.2h-4c-1.9,7.3-2.9,11.1-3.1,11.3h-5c-0.2,0-0.7-1.7-1.5-5.1l-1.7-6.2h-4l-0.2-0.2v-4.8l0.2-0.2
			l-0.4-1.6h-0.1l-4.8,18l-0.1,0.1h-4.9l-0.2-0.2l7.5-27.7H152.1z"/>
		<path d="M182.5,9.3H208l0.2,0.2c-0.7,3.2-1.2,4.9-1.3,5h-12.6l-1.7,6.2h2.6c-0.7,3.4-1.1,5.1-1.3,5.1h-5.1c-0.1,0-0.7,2.1-1.7,6.2
			h19.7c0.2,0,0.6,1.7,1.3,5.1h-27.4l-0.2-0.2l3-11.2l-0.2-0.2v-4.8l0.2-0.2h4l1.7-6.2h-6.6l-0.2-0.2V9.5L182.5,9.3z"/>
		<path d="M223.9,9.3c0.2,0,1,2.8,2.3,8.3c0.1,0.1,1,3.4,2.7,9.9h0.1l0.4-1.7l-0.2-0.2v-4.8l0.2-0.2h3.8c0.1,0,0.6-1.8,1.6-5.5
			c0.9-3.6,1.5-5.6,1.7-5.9h4.9l0.2,0.2l-3.6,13.7v2.4l-0.2,0.2h-3.1c-1.7,6.4-2.7,10.2-3.1,11.3h-5c-0.2,0-0.9-2.5-2.1-7.4
			c-0.3-0.7-1.2-4.3-2.9-10.8h-0.1l-1.1,4.3v2.3l-0.2,0.2h-3c-0.1,0-0.6,1.8-1.6,5.5c-0.9,3.6-1.5,5.6-1.7,5.9H209l-0.2-0.2l3-11.2
			l-0.2-0.2v-4.8l0.2-0.2h4c1.9-7.3,2.9-11.1,3.1-11.3H223.9z"/>
		<path d="M242.2,9.4L242.2,9.4l21.6-0.1l0.2,0.2c-0.7,3.2-1.2,4.9-1.3,5h-8.4l-2.3,9.1v2.1l-0.2,0.2h-3c-0.1,0-0.6,1.9-1.6,5.6
			l-1.6,5.7h-5l-0.2-0.2l3-11.2l-0.2-0.2v-4.8l0.2-0.2h4l1.7-6.2h-5.5c-0.2,0-0.6-1.5-1.2-4.6C242.3,9.9,242.2,9.7,242.2,9.4z"/>
		<path d="M270.9,9.3c0.2,0,0.7,2,1.7,5.9l5.9,21.9l-0.1,0.1h-4.9c-0.2,0-0.5-1.1-1-3.2l-1-3.6h-5c-0.3-0.4-0.9-2.5-1.8-6.5h-0.1
			c-2.2,8.4-3.4,12.8-3.6,13.3h-4.9l-0.2-0.2l3.7-13.8h2.6c2.4-9.2,3.6-13.8,3.7-13.8H270.9z M268.4,19l-1.1,4.1h2.2L268.4,19
			L268.4,19z"/>
		<path d="M294.3,9.3h12.4c3.7,0,7.1,1.7,10.3,5.2c2,2.8,3,5.4,3,8v1.3c0,3.7-1.8,7.2-5.3,10.3c-2.2,1.6-4.4,2.5-6.6,2.8l-0.1,0.1
			h-15.5l-0.2-0.2l3.7-13.7h2.4c0.2,0,0.7-2,1.7-6l0.8-2.8h-6.6l-0.2-0.2V9.5L294.3,9.3z M306,14.5c-1.5,5.9-2.3,8.8-2.5,8.8h-2.3
			c-0.1,0-0.9,2.9-2.4,8.7h6.9c3.9,0,6.7-1.8,8.4-5.3c0.5-1.1,0.7-2.3,0.7-3.6c0-3.4-1.7-6.1-5.2-7.9
			C308.6,14.7,307.4,14.5,306,14.5z"/>
		<path d="M333,9.3l0.2,0.2c-2.3,8.3-3.5,13-3.6,14v2.2l-0.2,0.2h-3.1l-3,11.3l-0.1,0.1h-4.9l-0.2-0.2l3-11.2l-0.2-0.2v-4.8l0.2-0.2
			h4l3-11.3l0.1-0.1H333z"/>
		<path d="M344.8,9.3h12.4l0.1,0.1h0.1l-1.3,5h-10.3c-3.9,0-6.7,1.8-8.4,5.3c-0.5,1.1-0.7,2.3-0.7,3.6c0,3.4,1.7,6.1,5.2,7.9
			c1.2,0.5,2.5,0.7,3.9,0.7h6.9c-1-4.1-1.6-6.2-1.7-6.2h-3.8c-0.2-0.3-0.8-2-1.7-5.1l0.1-0.1h11.8v0.1l-1.2,4.4l3.1,11.9l-0.1,0.1
			h-15.6c-0.1-0.1-0.7-0.2-1.7-0.4c-3.4-1.2-5.5-2.5-6.4-3.9c-1.5-1.6-2.5-3.2-3-4.6c-0.6-1.5-0.9-3-0.9-4.3v-1.3
			c0-3.7,1.7-7.1,5.2-10.3C339.5,10.3,342.2,9.3,344.8,9.3z"/>
		<path d="M374.8,9.3l0.2,0.2c-2.3,8.3-3.5,13-3.6,14v2.2l-0.2,0.2H368l-3,11.3l-0.1,0.1h-4.9l-0.2-0.2l3-11.2l-0.2-0.2v-4.8
			l0.2-0.2h4l3-11.3l0.1-0.1H374.8z"/>
		<path d="M376.3,9.4L376.3,9.4l21.6-0.1l0.2,0.2c-0.7,3.2-1.2,4.9-1.3,5h-8.4l-2.3,9.1v2.1l-0.2,0.2h-3c-0.1,0-0.6,1.9-1.6,5.6
			l-1.6,5.7h-5l-0.2-0.2l3-11.2l-0.2-0.2v-4.8l0.2-0.2h4l1.7-6.2h-5.5c-0.2,0-0.6-1.5-1.2-4.6C376.4,9.9,376.3,9.7,376.3,9.4z"/>
		<path d="M405,9.3c0.2,0,0.7,2,1.7,5.9l5.9,21.9l-0.1,0.1h-4.9c-0.2,0-0.5-1.1-1-3.2l-1-3.6h-5c-0.3-0.4-0.9-2.5-1.8-6.5h-0.1
			c-2.2,8.4-3.4,12.8-3.6,13.3h-4.9l-0.2-0.2l3.7-13.8h2.6c2.4-9.2,3.6-13.8,3.7-13.8H405z M402.5,19l-1.1,4.1h2.2L402.5,19
			L402.5,19z"/>
		<path d="M423.3,9.3h5v0.1l-3.6,13.9v2.3l-0.2,0.2h-3c-0.2,0.3-0.8,2.4-1.7,6.2h20.4l0.2,0.2v4.8l-0.2,0.2h-26.7l-0.2-0.2l3-11.2
			l-0.2-0.2v-4.8l0.2-0.2h4C422.1,13.1,423.2,9.3,423.3,9.3z"/>
	</g>
</g>
</svg>
